<?xml version="1.0" encoding="UTF-8"?><svg id="Camada_2" xmlns="http://www.w3.org/2000/svg" viewBox="0 0 551.93 425.8"><defs><style>.cls-1{fill:none;stroke:#6694ce;stroke-miterlimit:10;stroke-width:1.13px;}</style></defs><g id="Camada_1-2"><path class="cls-1" d="m162.12,61.87c28.3-9.78,81.51-28.78,90.39-30.26s26.61-.8,35.75-.33c3.66.19,7.21,1.36,10.27,3.38l3.54,2.34c1.62,1.07,3.08,2.36,4.33,3.83l119.11,139.78s15.52,10.96,9.92-9.01c-.57-2.02-.52-4.16.17-6.14,5.65-16.2,31.96-90.55,49.28-120.14"/><path class="cls-1" d="m147.8,66.71c1.85-.59,4.39-1.43,7.47-2.48"/><path class="cls-1" d="m142.71,70.49c0-1.47.38-2.87,1.8-2.87.1,0,.3-.04.59-.11"/><path class="cls-1" d="m164.87,67.51c37.2-10.98,92.33-27.63,96.98-31.25.06-.05.02-.14-.05-.14h-6.36s-41.82,13.08-63.37,23.29l-32.96,9.75"/><path class="cls-1" d="m147.8,72.52c3.4-.99,7.21-2.11,11.32-3.32"/><path class="cls-1" d="m484.1,68.02c-12.66,27.87-32.03,73.87-30.59,92.6,0,0,49-111,54-116s11,5,7,9c-3.7,3.7-44.13,103.07-50.23,118.1-.51,1.26-1.27,2.39-2.22,3.35l-8.55,8.55c-3.65,3.65-14.39,49.4-16.23,57.33-.16.67-.8,1.11-1.48,1.02-2.67-.37-9.32-1.49-15.3-4.15l-.06-.03c-.76-.34-1.03-1.28-.57-1.97h0c.54-.82.08-1.91-.87-2.09-14.3-2.76-102.17-19.49-157.42-24.39-1.39-.12-2.58.98-2.58,2.37h0c0,1.85-.99,3.55-2.61,4.46-4.34,2.42-13,6.34-17.39,1.95l10-42s-91.71-61.44-114.66-75.09c-2.08-1.24-3.34-3.47-3.34-5.89v-12.59c0-3.05,2.01-5.74,4.94-6.59s6.96-2.02,11.85-3.45"/><path class="cls-1" d="m425.8,213.74l1.74-5.21c.6-1.81.22-3.81-1.02-5.26L295.68,49.35c-1.31-1.54-3.82-.94-4.28,1.04l-32.89,141.23s-4.92,19.68,161.91,25.85c2.42.09,4.62-1.43,5.39-3.73Z"/><path class="cls-1" d="m278.64,54.3l-26.37,111.13c-.37,1.56-2.16,2.29-3.52,1.44l-108.23-68.26s-8-9,4-14c10.76-4.48,110.76-28.26,131.32-33.13,1.69-.4,3.21,1.12,2.81,2.81Z"/><path class="cls-1" d="m153.84,106.3c8.43-6.18,13.78-16.29,13.15-27.6m-2.45-11.19c-4.65-11.59-15.28-19.15-27.91-19.82-19.63-1.04-35.78,14.93-34.54,34.54,1.02,16.18,14.15,29.3,30.32,30.32,5.63.36,11-.72,15.75-2.91m-6.36-4.04c-.5.14-1.01.27-1.52.39-1.85.42-3.78.63-5.76.63-3.8,0-7.41-.8-10.68-2.24-.8-.35-1.57-.74-2.32-1.17-5.35-3.01-9.55-7.83-11.76-13.63-.39-1.01-.72-2.06-.98-3.14-.5-2.02-.76-4.14-.76-6.32,0-3.54.69-6.91,1.95-10h.01c.34-.86.73-1.69,1.17-2.5,2.99-5.6,7.93-9.99,13.92-12.26h.01c1.09-.43,2.22-.77,3.38-1.04,1.95-.46,3.97-.7,6.06-.7,3.63,0,7.09.73,10.25,2.06.98.41,1.93.88,2.84,1.4,0,0,0,0,0,.01,4.84,2.75,8.72,6.97,11.03,12.07m2.37,10.58c0,.13,0,.25,0,.38,0,4.12-.94,8.02-2.61,11.5-.36.73-.74,1.44-1.16,2.13,0,0,0,.01-.01.01-2.27,3.79-5.46,6.95-9.26,9.19"/><path class="cls-1" d="m153.27,106.66c8.67-6.14,14.2-16.42,13.71-27.96m-2.32-10.7c-4.58-11.3-15.37-19.52-28.04-20.32-19.61-1.24-35.78,14.93-34.54,34.54,1.02,16.18,14.15,29.3,30.32,30.32,5.65.36,11.01-.73,15.75-2.92m-6.36-4.03c-.5.14-1.01.27-1.52.39-1.85.42-3.78.63-5.76.63-3.8,0-7.41-.8-10.68-2.24-.8-.35-1.57-.74-2.32-1.17-5.35-3.01-9.55-7.83-11.76-13.63-.39-1.01-.72-2.06-.98-3.14-.5-2.02-.76-4.14-.76-6.32,0-3.54.69-6.91,1.95-10h.01c.34-.86.73-1.69,1.17-2.5,2.99-5.6,7.93-9.99,13.92-12.26h.01c1.09-.43,2.22-.77,3.38-1.04,1.95-.46,3.97-.7,6.06-.7,3.63,0,7.09.73,10.25,2.06.98.41,1.93.88,2.84,1.4,0,0,0,0,0,.01,4.84,2.75,8.72,6.97,11.03,12.07m2.37,10.96c0,4.12-.94,8.02-2.61,11.5-.36.73-.74,1.44-1.16,2.13,0,0,0,.01-.01.01-2.27,3.79-5.46,6.95-9.26,9.19"/><path class="cls-1" d="m126.06,70.62l-16.84,15.41c-.2.18-.53.08-.59-.18-.41-1.84-.62-3.76-.62-5.73,0-3.54.69-6.91,1.95-10h.01l15.85-.1c.32,0,.48.39.24.61Z"/><path class="cls-1" d="m144.49,72.14l-15.63-17.37c-.18-.2-.08-.53.19-.58,1.77-.37,3.59-.57,5.47-.57,3.55,0,6.93.7,10.03,1.97.13.05.22.18.22.32l.34,15.98c0,.32-.39.48-.61.24Z"/><path class="cls-1" d="m147.51,73.07v-15.83l.1-.16c4.78,2.71,8.63,6.87,10.94,11.89"/><path class="cls-1" d="m161.01,80.12c0,4.04-.9,7.86-2.51,11.29-.06.13-.19.21-.33.2l-15.01-.36c-.32,0-.46-.4-.23-.61l9.46-8.69"/><path class="cls-1" d="m138.04,93.62h18.97l.22.14c-2.27,3.79-5.46,6.95-9.26,9.19"/><path class="cls-1" d="m121.51,79.05v23.54c0,.27-.3.45-.53.31-5.03-2.99-8.98-7.59-11.14-13.1-.05-.13-.02-.29.09-.39l10.99-10.61c.22-.21.59-.06.59.25Z"/><path class="cls-1" d="m135.71,67.62h-23.96c-.27,0-.44-.29-.31-.53,3.01-5.35,7.83-9.53,13.63-11.73h.01l10.89,11.67c.21.22.05.59-.26.59Z"/><line class="cls-1" x1="125.07" y1="55.36" x2="125.06" y2="55.35"/><line class="cls-1" x1="121.51" y1="103.22" x2="121.51" y2="103.21"/><path class="cls-1" d="m140.51,105.62l-.24.37c-1.85.42-3.78.63-5.76.63-3.72,0-7.25-.77-10.46-2.15-.13-.06-.22-.19-.21-.33l.07-14.88c0-.31.38-.47.6-.24l6.51,6.75"/><line class="cls-1" x1="158.51" y1="91.62" x2="158.4" y2="91.62"/><path class="cls-1" d="m489.56,65.27c1.31,2.06,2.86,3.91,4.6,5.49m9.8,5.34c1.13.28,2.29.47,3.47.55,14.56,1.06,26.56-12.82,25.64-29.67-.76-13.89-10.5-25.17-22.51-26.04-14.1-1.03-25.81,11.97-25.69,28.1m5.91-8.83c.25-.74.54-1.45.87-2.15,2.22-4.81,5.89-8.58,10.33-10.53h0c.81-.37,1.65-.66,2.51-.89,1.45-.4,2.95-.6,4.5-.6,2.69,0,5.26.63,7.61,1.77.73.35,1.43.76,2.11,1.2,0,0,0,0,0,0,4.1,2.7,7.28,7.05,8.85,12.29.27.88.5,1.79.66,2.72.29,1.54.44,3.13.44,4.77,0,3.54-.7,6.89-1.94,9.88-.27.63-.55,1.24-.86,1.83,0,0,0,0,0,0-2.31,4.46-5.89,7.9-10.18,9.69-.78.33-1.59.6-2.41.82-1.37.36-2.81.54-4.28.54-1,0-1.99-.09-2.95-.25m-9.59-4.98c-1.26-1.21-2.4-2.6-3.36-4.14"/><path class="cls-1" d="m501.1,40.13h1.46c.24-.01.35.33.18.51l-.9.96"/><path class="cls-1" d="m516.42,41.94l-11.6-14.92c-.13-.17-.06-.45.14-.5,1.31-.32,2.66-.49,4.06-.49,2.63,0,5.15.6,7.45,1.69.1.05.16.16.16.28l.25,13.73c0,.28-.29.42-.45.21Z"/><path class="cls-1" d="m527.45,41.45l-8.36,9.03c-.17.18-.44.04-.44-.22v-21.1l.07-.14c4.06,2.66,7.2,6.95,8.79,12.1.04.11,0,.24-.07.33Z"/><path class="cls-1" d="m528.68,48.8c0,3.47-.67,6.75-1.86,9.7-.04.11-.14.18-.25.18l-11.14-.31c-.23,0-.34-.34-.17-.52l12.64-13.44c.15-.16.4-.07.44.16.23,1.37.34,2.78.34,4.24Z"/><path class="cls-1" d="m510.95,60.39h14.76l.16.12c-2.28,4.4-5.8,7.81-10.01,9.62-.1.04-.21.01-.28-.08l-5.82-6.98"/><path class="cls-1" d="m496.08,65.95c-1.01-1.01-1.92-2.15-2.73-3.38"/><path class="cls-1" d="m509.89,38.06h-17.79c-.2,0-.33-.25-.23-.45,2.24-4.59,5.81-8.19,10.12-10.08h0l8.08,10.02c.16.19.04.51-.19.51Z"/><line class="cls-1" x1="502" y1="27.53" x2="501.99" y2="27.52"/><line class="cls-1" x1="499.36" y1="68.64" x2="499.36" y2="68.63"/><line class="cls-1" x1="515.7" y1="70.21" x2="515.7" y2="70.2"/><path class="cls-1" d="m508.97,65.31l4.5,5.39-.18.32c-1.37.36-2.81.54-4.28.54-1,0-1.99-.09-2.95-.25"/><line class="cls-1" x1="528.25" y1="44.02" x2="528.24" y2="44.03"/><line class="cls-1" x1="526.82" y1="58.68" x2="526.74" y2="58.68"/><line class="cls-1" x1="527.77" y1="41.11" x2="527.58" y2="41.31"/><path class="cls-1" d="m315.21,50.79c2.88-5.22,4.36-11.31,3.95-17.78-1.02-16.18-14.15-29.3-30.32-30.32-17.61-1.11-32.45,11.81-34.39,28.66m32.94,36.27c6.91-.14,13.29-2.43,18.5-6.23m-45.01-6.63c3.77,4.94,8.92,8.79,14.85,10.94m-15.15-34.81c.32-2,.87-3.93,1.61-5.76h.01c.34-.86.73-1.69,1.17-2.5,2.99-5.6,7.93-9.99,13.92-12.26h.01c1.09-.43,2.22-.77,3.38-1.04,1.95-.46,3.97-.7,6.06-.7,3.63,0,7.09.73,10.25,2.06.98.41,1.93.88,2.84,1.4,0,0,0,0,0,.01,5.53,3.14,9.81,8.21,11.92,14.31.37,1.03.67,2.08.89,3.17.39,1.79.59,3.64.59,5.55,0,4.12-.94,8.02-2.61,11.5m-33.08,13.36c-.5-.19-1-.39-1.49-.6-.8-.35-1.57-.74-2.32-1.17-2.27-1.28-4.33-2.88-6.12-4.74m34.39,3.31c-1.91,1.35-4.01,2.45-6.26,3.26-1.05.39-2.14.7-3.25.95-1.17.27-2.38.45-3.61.55"/><path class="cls-1" d="m260.57,30.88c.32-2.01.87-3.93,1.61-5.77h.01l15.85-.1c.32,0,.48.39.24.61l-5.58,5.11"/><path class="cls-1" d="m296.71,27.14l-15.63-17.37c-.18-.2-.08-.53.19-.58,1.77-.37,3.59-.57,5.47-.57,3.55,0,6.93.7,10.03,1.97.13.05.22.18.22.32l.34,15.98c0,.32-.39.48-.61.24Z"/><path class="cls-1" d="m299.73,35.57V12.25l.1-.16c5.46,3.1,9.71,8.09,11.84,14.09.05.13.01.28-.09.38l-9.92,9.26"/><path class="cls-1" d="m303.45,38.01l8.72-8.02c.2-.19.54-.08.59.19.31,1.6.46,3.24.46,4.93,0,3.83-.81,7.47-2.27,10.75"/><path class="cls-1" d="m302,56.78c-1.85,1.3-3.88,2.38-6.04,3.18-.13.05-.28.01-.38-.09l-5.14-5.34"/><path class="cls-1" d="m273.73,51.98v5.61c0,.27-.3.45-.53.31-2.17-1.29-4.13-2.87-5.85-4.71"/><path class="cls-1" d="m287.93,22.62h-23.96c-.27,0-.44-.29-.31-.53,3.01-5.35,7.83-9.53,13.63-11.73h.01l10.89,11.67c.21.22.05.59-.26.59Z"/><line class="cls-1" x1="277.29" y1="10.36" x2="277.28" y2="10.35"/><line class="cls-1" x1="273.73" y1="58.22" x2="273.73" y2="58.21"/><line class="cls-1" x1="295.75" y1="60.05" x2="295.74" y2="60.04"/><path class="cls-1" d="m277.31,59.89c-.35-.13-.7-.27-1.04-.42-.13-.06-.22-.19-.21-.33l.03-7.72"/><path class="cls-1" d="m290.01,57.8l2.72,2.82-.24.37c-1.2.27-2.43.46-3.69.55"/><line class="cls-1" x1="312.65" y1="29.56" x2="312.64" y2="29.57"/><line class="cls-1" x1="312" y1="26.17" x2="311.75" y2="26.4"/><polygon class="cls-1" points="289.15 2.62 287.56 .57 285.21 .57 285.21 2.62 289.15 2.62"/><polygon class="cls-1" points="280.66 3.1 278.59 1.53 276.31 2.14 276.85 4.12 280.66 3.1"/><polygon class="cls-1" points="272.58 5.76 270.18 4.78 268.13 5.96 269.16 7.73 272.58 5.76"/><polygon class="cls-1" points="265.46 10.42 262.89 10.1 261.22 11.77 262.67 13.22 265.46 10.42"/><polygon class="cls-1" points="259.8 16.77 257.23 17.12 256.05 19.16 257.82 20.19 259.8 16.77"/><polygon class="cls-1" points="255.97 24.37 253.57 25.37 252.96 27.65 254.94 28.18 255.97 24.37"/><polygon class="cls-1" points="262.04 56.38 261.71 58.96 263.38 60.63 264.83 59.18 262.04 56.38"/><polygon class="cls-1" points="268.38 62.05 268.73 64.62 270.78 65.8 271.8 64.03 268.38 62.05"/><polyline class="cls-1" points="287.1 69.67 288.26 69.67 288.26 67.62 287.39 67.62"/><polygon class="cls-1" points="292.8 67.14 294.87 68.71 297.15 68.1 296.62 66.11 292.8 67.14"/><polygon class="cls-1" points="300.88 64.47 303.29 65.46 305.33 64.28 304.3 62.5 300.88 64.47"/><polyline class="cls-1" points="316.24 53.11 317.42 51.07 315.64 50.05 315.21 50.79"/><polygon class="cls-1" points="317.5 45.87 319.89 44.86 320.5 42.59 318.52 42.05 317.5 45.87"/><polygon class="cls-1" points="319.23 37.54 321.28 35.95 321.28 33.59 319.23 33.59 319.23 37.54"/><polygon class="cls-1" points="318.75 29.05 320.32 26.98 319.71 24.7 317.73 25.23 318.75 29.05"/><polygon class="cls-1" points="316.09 20.97 317.07 18.56 315.89 16.52 314.11 17.55 316.09 20.97"/><polygon class="cls-1" points="311.43 13.85 311.75 11.28 310.08 9.61 308.63 11.06 311.43 13.85"/><polygon class="cls-1" points="305.08 8.18 304.73 5.61 302.68 4.43 301.66 6.21 305.08 8.18"/><polygon class="cls-1" points="297.48 4.35 296.48 1.96 294.2 1.35 293.67 3.33 297.48 4.35"/><path class="cls-1" d="m453.51,160.62s-1.82,7.29-10.5,12.44"/><line class="cls-1" x1="249.01" y1="176.12" x2="252.2" y2="178.5"/><path class="cls-1" d="m249.9,219.08l-18.13,73.46s-1.59,5.55-13.01,4.87c-.92-.05-1.82.31-2.44.99-.72.79-1.53,1.94-1.7,3.2-.04.3-.21.55-.5.66-1.1.41-3.91,1.23-5.32-.18-1.62-1.62.12-12.07,9.61-13.1,1.97-.21,3.59-1.64,4.1-3.55l17.74-66.34"/><path class="cls-1" d="m227.5,296.34s14.49,7.44,19.6,10.33c4.09,2.31,15.9.93,20.47.28,1.33-.19,2.68.05,3.87.68,2.99,1.59,7.47,4.88.17,7.73-10.04,3.91-45.45,3.4-70.64,12.77-19.4,7.21-21.84,1.4-21.94-1.66-.03-.89-.69-1.61-1.56-1.77-2.25-.43-5.66-1.76-3.39-5.93,3.23-5.96,18.89-20.92,34.46-20.92"/><path class="cls-1" d="m214.13,305.35c-8.16,2.68-10.2,11.18-10.2,11.18,18.23-6.45,25.15-3.13,25.15-3.13"/><path class="cls-1" d="m206.59,302.87s-10.72,6.44-10.72,10.27c0,0-3.61-2.7,3.96-10.27"/><path class="cls-1" d="m177.47,324.69s2.4,2.75,8.18-6.44"/><line class="cls-1" x1="431.78" y1="241.27" x2="427.82" y2="261.69"/><line class="cls-1" x1="422.68" y1="238.71" x2="418.76" y2="256.79"/><path class="cls-1" d="m421.63,238.3s-18.07,1.7-7.98,13.18c0,0,7.53,6,4.21,8.04-.72.44-1.3.88-1.77,1.29-1.9,1.67-2.08,4.68-.21,6.39,1.21,1.11,3.28,1.91,6.8,1.38,0,0,1.16.13,2.23-.87.41-.38.8-.92,1.11-1.69"/><path class="cls-1" d="m449.39,267.44c1.28-5.59,4.99-6.11,6.99-5.97.77.06,1.49.43,2.02.99,19.32,20.54,39.37,15.18,39.37,15.18,0,0,16.6-1.91,15.06-18.13s-24.64-17.54-24.64-17.54c0,0-4.72.18-4.72-4.67s4.72-5.23,4.72-5.23c35.11,4.85,36.26,27.96,35.74,39.83s6.64,9.45,9.7,12.51c1.54,1.54,4.56,6.79,7.19,11.63,2.35,4.33-.52,9.65-5.43,10.08h0c-3.31.29-6.35-1.83-7.22-5.04l-1.61-5.97c-1.03-3.82-4.5-6.48-8.46-6.48h-27.42c-10.4,0-20.44-3.89-28.12-10.91-2.58-2.35-4.87-4.24-5.92-4.54-9.93-2.9-12.64-4.43-12.64-4.43h-21.35"/><path class="cls-1" d="m445.18,266.03s-2.55-7.53,8.68-10.85c0,0-3.43-.51-8.93,1.4h-15.99"/><path class="cls-1" d="m425.39,214.68s-.12-10.94-21.95-12.73c0,0-5.3-1.61-2.43-6.38,1.66-2.76,6.77-1.4,6.77-1.4,0,0,13.39,3.56,17.61,7.78"/><path class="cls-1" d="m460.78,264.86s5.4-6.29-2.2-13.89-15.83-7.66-15.83-7.66h-10.98"/><path class="cls-1" d="m429.8,252.63h21.62c.53,0,.72-.7.26-.97l-3.19-1.84c-1.58-.92-3.38-1.4-5.2-1.4h-13.49"/><path class="cls-1" d="m425.39,193.83s24.39,19.48,42.26,28.29,9.54,37.28-6.02,33"/><path class="cls-1" d="m493.23,62.4l7-4.31,1.24-2.53s2.05-14.84-.84-15.44-9.84.09-9.84.09c0,0-11.77,17.27-11.77,21.78l-.6,3.96,2.38,1.44"/><path class="cls-1" d="m461.06,254.08s-4.65-6.31,5.18-20.73-12.73-49.91-12.73-58.21,17.46-97.27,27.29-107.74l2.3,1.25,10.14-6.24"/><path class="cls-1" d="m462.27,256.79s4.4-12.92-1.55-22.63-6.35-20.17-3.23-29.91-3.97-.9-3.97-.9c0,0-9.31,20.53,2.44,34.95,0,0,2.25,2.39.98,6.24"/><path class="cls-1" d="m451.56,245.83s3.79-2.36,2.3-10.51"/><path class="cls-1" d="m541.4,301.17s5.78-1.82,5.78-5.39-4.85-1.79-1.28-12l-1.61-30.25,4.17-7.69s-1.07-.54-3.53,1.92c-1.27,1.27-3.95,4.93-6.26,8.18-2.55,3.59-3.33,8.14-2.13,12.38l1.45,5.16,1.53,12.09"/><path class="cls-1" d="m535.04,286.18s2.1,1.98,3.55-8"/><path class="cls-1" d="m534.01,347.43c-1.27-2.18-2.94-4.3-4.96-6.34-1.21-1.24-2.56-2.45-4.04-3.63-5.91-4.76-13.81-9.04-23.26-12.68-2.37-.91-4.83-1.78-7.38-2.61-12.56-4.08-27.31-7.1-43.43-8.75-3.14-.32-6.32-.59-9.56-.8-6.08-.4-12.33-.61-18.7-.61-6.89,0-13.65.24-20.21.71-3.23.24-6.42.52-9.55.86-6.41.69-12.61,1.61-18.53,2.72-5.92,1.11-11.56,2.42-16.88,3.91-2.69.75-5.3,1.55-7.82,2.39-10.12,3.38-18.78,7.45-25.51,12.04-1.68,1.14-3.24,2.31-4.67,3.51-3.51,2.93-6.26,6.04-8.16,9.28-1.16,1.99-2,4.02-2.5,6.09-.33,1.37-.52,2.75-.54,4.15-.01.13-.01.26-.01.38,0,5.39,2.3,10.56,6.53,15.37,1.12,1.28,2.38,2.54,3.78,3.77,5.66,4.98,13.46,9.49,22.95,13.33,2.38.97,4.88,1.89,7.47,2.76,12.83,4.36,28.08,7.6,44.82,9.35h.01c3.27.34,6.58.63,9.96.85,6.14.41,12.44.63,18.86.63.93,0,1.85,0,2.77-.01,6.46-.07,12.78-.35,18.92-.82,3.35-.26,6.65-.57,9.89-.95,13.23-1.52,25.48-3.99,36.27-7.19,2.72-.81,5.35-1.67,7.88-2.57,10.06-3.58,18.55-7.86,24.98-12.66,1.59-1.18,3.05-2.39,4.38-3.64,5.18-4.83,8.35-10.09,9.11-15.61.13-.86.19-1.73.19-2.61,0-3.65-1.06-7.21-3.06-10.62Zm-95.02,12.59c-.15.2-.32.4-.51.59-.81.81-1.98,1.54-3.44,2.15-.37.16-.76.31-1.17.46-1.66.58-3.6,1.04-5.73,1.32-.52.08-1.06.14-1.61.19-1.23.12-2.52.18-3.85.18-.98,0-1.94-.04-2.87-.1-.57-.04-1.12-.09-1.66-.15-2.76-.31-5.24-.88-7.24-1.65-.4-.16-.77-.32-1.14-.49-1.41-.65-2.51-1.42-3.21-2.26-.17-.2-.32-.41-.44-.62-.3-.51-.46-1.04-.46-1.59,0-.25.04-.51.11-.76.06-.25.16-.49.29-.73.43-.78,1.19-1.5,2.22-2.16.24-.16.51-.32.8-.47,1.1-.59,2.44-1.1,3.95-1.52.37-.1.74-.2,1.13-.29,1.49-.35,3.13-.61,4.87-.76.41-.04.84-.07,1.27-.09.78-.04,1.57-.07,2.38-.07.92,0,1.83.03,2.71.09.43.03.85.06,1.26.1,2.13.2,4.1.57,5.83,1.06.36.1.71.21,1.05.32,1.38.46,2.57,1.01,3.53,1.62.25.15.48.31.69.48.93.7,1.55,1.47,1.81,2.29.06.15.09.31.11.46.03.14.04.29.04.43,0,.69-.25,1.35-.72,1.97Z"/><path class="cls-1" d="m444.38,360.02c0,.88-.32,1.72-.92,2.51-.19.25-.41.51-.65.75-1.03,1.03-2.52,1.96-4.38,2.74-.47.2-.97.39-1.49.59-2.11.74-4.59,1.32-7.3,1.68-.66.09-1.35.18-2.05.24-1.57.14-3.21.22-4.9.22-1.25,0-2.47-.04-3.66-.13-.73-.04-1.43-.1-2.11-.18-3.52-.39-6.68-1.12-9.22-2.11-.51-.19-.98-.39-1.45-.61-1.8-.84-3.2-1.82-4.09-2.89-.22-.25-.41-.51-.56-.78-.38-.65-.59-1.32-.59-2.03,0-.33.05-.65.14-.97.08-.32.2-.62.37-.93.55-.99,1.52-1.92,2.83-2.75.31-.2.65-.41,1.02-.6,1.4-.75,3.11-1.4,5.03-1.95.47-.13.94-.24,1.44-.36,1.9-.45,3.99-.78,6.2-.97.52-.05,1.07-.09,1.62-.11.99-.06,2-.09,3.03-.09,1.17,0,2.33.04,3.45.11.55.03,1.08.08,1.61.11,2.71.27,5.22.74,7.43,1.36.46.13.9.27,1.34.41,1.76.59,3.27,1.29,4.5,2.05.32.2.61.41.88.61,1.18.89,1.97,1.89,2.31,2.93.08.19.11.38.14.59.04.18.05.37.05.55Z"/><path class="cls-1" d="m422.68,306.25c-71.06,0-128.68,23.19-128.68,51.8,0,2.61.48,5.18,1.41,7.69,9.22,24.97,62.7,44.12,127.27,44.12s118.05-19.15,127.27-44.12c.93-2.51,1.41-5.08,1.41-7.69,0-28.61-57.61-51.8-128.68-51.8Zm2.78,99.34c-.92.02-1.85.02-2.78.02-65.24,0-118.12-21.29-118.12-47.56,0-2.05.32-4.07.95-6.06h0c7.4-23.4,57.04-41.49,117.17-41.49s109.79,18.09,117.18,41.49h0c.63,1.99.95,4.01.95,6.06,0,25.9-51.39,46.95-115.35,47.54Z"/><path class="cls-1" d="m551.36,358.05v15.37c0,28.61-57.61,51.81-128.68,51.81s-128.68-23.2-128.68-51.81v-15.37c0,2.61.48,5.18,1.41,7.69,9.22,24.97,62.7,44.12,127.27,44.12s118.05-19.15,127.27-44.12c.93-2.51,1.41-5.08,1.41-7.69Z"/><path class="cls-1" d="m425.46,405.59c-.92.02-1.85.02-2.78.02-65.24,0-118.12-21.29-118.12-47.56,0-2.05.32-4.07.95-6.06h0c7.4-23.4,57.04-41.49,117.17-41.49v1.51c-6.89,0-13.65.24-20.21.71-3.23.24-6.42.52-9.55.86-6.41.69-12.61,1.61-18.53,2.72-5.92,1.11-11.56,2.42-16.88,3.91-2.69.75-5.3,1.55-7.82,2.39-10.12,3.38-18.78,7.45-25.51,12.04-1.68,1.14-3.24,2.31-4.67,3.51-3.51,2.93-6.26,6.04-8.16,9.28-1.16,1.99-2,4.02-2.5,6.09-.33,1.37-.52,2.75-.54,4.15-.01.13-.01.26-.01.38,0,5.39,2.3,10.56,6.53,15.37,1.12,1.28,2.38,2.54,3.78,3.77,5.66,4.98,13.46,9.49,22.95,13.33,2.38.97,4.88,1.89,7.47,2.76,12.83,4.36,28.08,7.6,44.82,9.35h.01c3.27.34,6.58.63,9.96.85,6.14.41,12.44.63,18.86.63.93,0,1.85,0,2.77-.01v1.49Z"/><path class="cls-1" d="m540.81,358.05c0,25.9-51.39,46.95-115.35,47.54v-1.49c6.45-.07,12.77-.35,18.91-.82,3.35-.26,6.65-.57,9.89-.95,13.23-1.52,25.48-3.99,36.27-7.19,2.72-.81,5.35-1.67,7.88-2.57,10.06-3.58,18.55-7.86,24.98-12.66,1.59-1.18,3.05-2.39,4.38-3.64,5.18-4.83,8.35-10.09,9.11-15.61.13-.86.19-1.73.19-2.61,0-3.65-1.06-7.21-3.06-10.62-1.27-2.18-2.94-4.3-4.96-6.34-1.21-1.24-2.56-2.45-4.04-3.63-5.91-4.76-13.81-9.04-23.26-12.68-2.37-.91-4.83-1.78-7.38-2.61-12.56-4.08-27.31-7.1-43.43-8.75-3.14-.32-6.32-.59-9.56-.8-6.08-.4-12.33-.61-18.7-.61v-1.51c60.14,0,109.79,18.09,117.18,41.49h0c.63,1.99.95,4.01.95,6.06Z"/><path class="cls-1" d="m537.07,358.05c0,.88-.06,1.75-.19,2.61-.76,5.52-3.93,10.78-9.11,15.61-1.33,1.25-2.79,2.46-4.38,3.64-6.43,4.8-14.92,9.08-24.98,12.66-2.53.9-5.16,1.76-7.88,2.57-10.79,3.2-23.04,5.67-36.27,7.19-3.24.38-6.54.69-9.89.95-6.14.47-12.46.75-18.92.82-.92.01-1.84.01-2.77.01-6.42,0-12.72-.22-18.86-.63-3.38-.22-6.69-.51-9.96-.85h-.01c-16.74-1.75-31.99-4.99-44.82-9.35-2.59-.87-5.09-1.79-7.47-2.76-9.49-3.84-17.29-8.35-22.95-13.33-1.4-1.23-2.66-2.49-3.78-3.77-4.23-4.81-6.53-9.98-6.53-15.37,0-.12,0-.25.01-.38.02-1.4.21-2.78.54-4.15.5-2.07,1.34-4.1,2.5-6.09,1.9-3.24,4.65-6.35,8.16-9.28,1.43-1.2,2.99-2.37,4.67-3.51,6.73-4.59,15.39-8.66,25.51-12.04,2.52-.84,5.13-1.64,7.82-2.39,5.32-1.49,10.96-2.8,16.88-3.91,5.92-1.11,12.12-2.03,18.53-2.72,3.13-.34,6.32-.62,9.55-.86,6.56-.47,13.32-.71,20.21-.71,6.37,0,12.62.21,18.7.61,3.24.21,6.42.48,9.56.8,16.12,1.65,30.87,4.67,43.43,8.75,2.55.83,5.01,1.7,7.38,2.61,9.45,3.64,17.35,7.92,23.26,12.68,1.48,1.18,2.83,2.39,4.04,3.63,2.02,2.04,3.69,4.16,4.96,6.34,2,3.41,3.06,6.97,3.06,10.62Z"/><path class="cls-1" d="m537.07,358.05c0,.88-.06,1.75-.19,2.61-.76,5.52-3.93,10.78-9.11,15.61-1.33,1.25-2.79,2.46-4.38,3.64-6.43,4.8-14.92,9.08-24.98,12.66-2.53.9-5.16,1.76-7.88,2.57-10.79,3.2-23.04,5.67-36.27,7.19-3.24.38-6.54.69-9.89.95-6.14.47-12.46.75-18.92.82-.92.01-1.84.01-2.77.01-6.42,0-12.72-.22-18.86-.63-3.38-.22-6.69-.51-9.96-.85h-.01c-16.74-1.75-31.99-4.99-44.82-9.35-2.59-.87-5.09-1.79-7.47-2.76-9.49-3.84-17.29-8.35-22.95-13.33-1.4-1.23-2.66-2.49-3.78-3.77-4.23-4.81-6.53-9.98-6.53-15.37,0-.12,0-.25.01-.38.02-1.4.21-2.78.54-4.15.5-2.07,1.34-4.1,2.5-6.09,1.9-3.24,4.65-6.35,8.16-9.28,1.43-1.2,2.99-2.37,4.67-3.51,6.73-4.59,15.39-8.66,25.51-12.04,2.52-.84,5.13-1.64,7.82-2.39,5.32-1.49,10.96-2.8,16.88-3.91,5.92-1.11,12.12-2.03,18.53-2.72,3.13-.34,6.32-.62,9.55-.86,6.56-.47,13.32-.71,20.21-.71,6.37,0,12.62.21,18.7.61,3.24.21,6.42.48,9.56.8,16.12,1.65,30.87,4.67,43.43,8.75,2.55.83,5.01,1.7,7.38,2.61,9.45,3.64,17.35,7.92,23.26,12.68,1.48,1.18,2.83,2.39,4.04,3.63,2.02,2.04,3.69,4.16,4.96,6.34,2,3.41,3.06,6.97,3.06,10.62Z"/><line class="cls-1" x1="419.82" y1="364.81" x2="403.83" y2="403.48"/><line class="cls-1" x1="441.39" y1="312.62" x2="425.4" y2="351.29"/><polyline class="cls-1" points="454.32 402.39 454.27 402.33 428.15 364.54"/><line class="cls-1" x1="419.04" y1="351.36" x2="392.98" y2="313.66"/><line class="cls-1" x1="497.92" y1="392.34" x2="435.05" y2="362.76"/><line class="cls-1" x1="413.04" y1="352.41" x2="350.2" y2="322.84"/><line class="cls-1" x1="527.78" y1="376.27" x2="439" y2="360.02"/><line class="cls-1" x1="408.29" y1="354.4" x2="319.52" y2="338.15"/><line class="cls-1" x1="534.22" y1="356.79" x2="439.57" y2="357.16"/><polyline class="cls-1" points="405.78 357.29 308.32 357.67 308.17 357.67"/><line class="cls-1" x1="524.74" y1="337.51" x2="437.07" y2="354.39"/><line class="cls-1" x1="406.57" y1="360.26" x2="318.62" y2="377.18"/><line class="cls-1" x1="494.38" y1="322.17" x2="432.49" y2="352.45"/><line class="cls-1" x1="410.92" y1="363.01" x2="349.04" y2="393.28"/><polyline class="cls-1" points="451.12 313.16 450.95 313.42 426.66 351.39"/><line class="cls-1" x1="418.16" y1="364.66" x2="394.04" y2="402.35"/><polyline class="cls-1" points="402.43 312.62 402.48 312.72 420.31 351.27"/><line class="cls-1" x1="444.38" y1="403.28" x2="426.54" y2="364.73"/><polyline class="cls-1" points="357.52 320.21 357.52 320.21 414.17 352.12"/><line class="cls-1" x1="490.53" y1="395.13" x2="433.88" y2="363.22"/><line class="cls-1" x1="409.09" y1="353.93" x2="324.19" y2="334.64"/><line class="cls-1" x1="523.4" y1="379.91" x2="438.49" y2="360.61"/><line class="cls-1" x1="406.07" y1="356.56" x2="308.86" y2="353.52"/><polyline class="cls-1" points="439.68 357.62 536.89 360.66 536.9 360.66"/><line class="cls-1" x1="406.13" y1="359.64" x2="314.84" y2="373.42"/><line class="cls-1" x1="529.06" y1="341.08" x2="437.76" y2="354.87"/><polyline class="cls-1" points="341.22 390.66 341.57 390.52 409.78 362.52"/><line class="cls-1" x1="501.43" y1="324.91" x2="433.54" y2="352.77"/><path class="cls-1" d="m434.05,358.06c0,2.53-5.09,4.57-11.36,4.57s-11.36-2.05-11.36-4.57,5.09-4.57,11.36-4.57,11.36,2.05,11.36,4.57Z"/><path class="cls-1" d="m427.4,358.06c0,1.05-2.1,1.89-4.7,1.89s-4.7-.85-4.7-1.89,2.1-1.89,4.7-1.89,4.7.85,4.7,1.89Z"/><path class="cls-1" d="m204.33,219.1c-1.08-1.34-2.5-2.64-4.21-3.89-1.03-.76-2.17-1.51-3.43-2.23-5.02-2.92-11.72-5.55-19.75-7.79-2.01-.56-4.1-1.09-6.27-1.6-10.66-2.51-23.19-4.36-36.87-5.38-2.67-.2-5.37-.36-8.12-.49-5.16-.25-10.47-.37-15.88-.37-5.85,0-11.59.15-17.16.44-2.74.15-5.45.32-8.11.53-5.44.42-10.71.99-15.73,1.67-5.03.68-9.81,1.49-14.33,2.4-2.28.46-4.5.95-6.64,1.47-8.59,2.08-15.94,4.58-21.66,7.4-1.43.7-2.75,1.42-3.96,2.16-2.98,1.8-5.31,3.71-6.93,5.7-.98,1.22-1.7,2.47-2.12,3.74-.28.84-.44,1.69-.46,2.55,0,.08,0,.16,0,.23,0,3.31,1.95,6.49,5.54,9.44.95.79,2.02,1.56,3.21,2.32,4.81,3.06,11.43,5.83,19.48,8.19,2.02.6,4.14,1.16,6.34,1.7,10.89,2.68,23.84,4.67,38.05,5.74h0c2.78.21,5.59.39,8.46.52,5.21.25,10.56.39,16.01.39.79,0,1.57,0,2.35,0,5.48-.04,10.85-.21,16.06-.5,2.84-.16,5.65-.35,8.4-.58,11.23-.93,21.63-2.45,30.79-4.42,2.31-.5,4.54-1.03,6.69-1.58,8.54-2.2,15.75-4.83,21.21-7.78,1.35-.72,2.59-1.47,3.72-2.24,4.4-2.97,7.09-6.2,7.73-9.59.11-.53.16-1.06.16-1.6,0-2.24-.9-4.43-2.6-6.52Zm-80.67,7.73c-.13.12-.27.25-.43.36-.69.5-1.68.95-2.92,1.32-.31.1-.65.19-.99.28-1.41.36-3.06.64-4.86.81-.44.05-.9.09-1.37.12-1.04.07-2.14.11-3.27.11-.83,0-1.65-.02-2.44-.06-.48-.02-.95-.06-1.41-.09-2.34-.19-4.45-.54-6.15-1.01-.34-.1-.65-.2-.97-.3-1.2-.4-2.13-.87-2.73-1.39-.14-.12-.27-.25-.37-.38-.25-.31-.39-.64-.39-.98,0-.15.03-.31.09-.47.05-.15.14-.3.25-.45.37-.48,1.01-.92,1.88-1.33.2-.1.43-.2.68-.29.93-.36,2.07-.68,3.35-.93.31-.06.63-.12.96-.18,1.26-.21,2.66-.37,4.13-.47.35-.02.71-.04,1.08-.06.66-.02,1.33-.04,2.02-.04.78,0,1.55.02,2.3.06.37.02.72.04,1.07.06,1.81.12,3.48.35,4.95.65.31.06.6.13.89.2,1.17.28,2.18.62,3,1,.21.09.41.19.59.29.79.43,1.32.9,1.54,1.41.05.09.08.19.09.28.03.09.03.18.03.26,0,.42-.21.83-.61,1.21Z"/><path class="cls-1" d="m128.23,226.84c0,.54-.27,1.06-.78,1.54-.16.16-.35.31-.55.46-.88.63-2.14,1.21-3.72,1.68-.4.13-.82.24-1.27.36-1.8.45-3.89.81-6.2,1.03-.56.05-1.15.11-1.74.15-1.33.09-2.73.13-4.16.13-1.06,0-2.1-.02-3.1-.08-.62-.02-1.21-.06-1.8-.11-2.99-.24-5.67-.69-7.83-1.3-.43-.12-.83-.24-1.23-.38-1.53-.52-2.71-1.12-3.47-1.78-.18-.16-.35-.31-.48-.48-.32-.4-.5-.81-.5-1.24,0-.2.04-.4.12-.59.06-.2.17-.38.31-.57.47-.61,1.29-1.18,2.4-1.69.26-.13.55-.25.87-.37,1.19-.46,2.64-.86,4.27-1.2.4-.08.8-.15,1.22-.22,1.61-.27,3.39-.48,5.27-.59.44-.03.91-.05,1.37-.07.84-.04,1.7-.05,2.57-.05.99,0,1.98.02,2.93.07.47.02.92.05,1.36.07,2.3.16,4.43.45,6.31.84.39.08.77.16,1.14.25,1.49.36,2.78.79,3.82,1.26.27.13.52.25.75.38,1.01.55,1.68,1.16,1.96,1.8.06.12.1.23.12.36.03.11.04.23.04.34Z"/><path class="cls-1" d="m109.81,193.8c-60.33,0-109.25,14.25-109.25,31.82,0,1.6.41,3.18,1.2,4.72,7.83,15.34,53.23,27.1,108.05,27.1s100.22-11.76,108.05-27.1c.79-1.54,1.2-3.12,1.2-4.72,0-17.58-48.91-31.82-109.25-31.82Zm2.36,61.03c-.78.01-1.57.01-2.36.01-55.39,0-100.28-13.08-100.28-29.22,0-1.26.27-2.5.81-3.72h0c6.28-14.37,48.43-25.49,99.47-25.49s93.21,11.11,99.48,25.49h0c.53,1.22.81,2.46.81,3.72,0,15.91-43.63,28.84-97.93,29.2Z"/><path class="cls-1" d="m219.06,225.62v10.68c0,19.87-48.91,35.99-109.25,35.99S.57,256.17.57,236.3v-10.68c0,1.81.05,3.81,1.2,5.34,13.08,17.44,53.23,26.49,108.05,26.49s98.45-10.76,108.05-26.49c1-1.63,1.2-3.53,1.2-5.34Z"/><path class="cls-1" d="m112.17,254.83c-.78.01-1.57.01-2.36.01-55.39,0-100.28-13.08-100.28-29.22,0-1.26.27-2.5.81-3.72h0c6.28-14.37,48.43-25.49,99.47-25.49v.93c-5.85,0-11.59.15-17.16.44-2.74.15-5.45.32-8.11.53-5.44.42-10.71.99-15.73,1.67-5.03.68-9.81,1.49-14.33,2.4-2.28.46-4.5.95-6.64,1.47-8.59,2.08-15.94,4.58-21.66,7.4-1.43.7-2.75,1.42-3.96,2.16-2.98,1.8-5.31,3.71-6.93,5.7-.98,1.22-1.7,2.47-2.12,3.74-.28.84-.44,1.69-.46,2.55,0,.08,0,.16,0,.23,0,3.31,1.95,6.49,5.54,9.44.95.79,2.02,1.56,3.21,2.32,4.81,3.06,11.43,5.83,19.48,8.19,2.02.6,4.14,1.16,6.34,1.7,10.89,2.68,23.84,4.67,38.05,5.74h0c2.78.21,5.59.39,8.46.52,5.21.25,10.56.39,16.01.39.79,0,1.57,0,2.35,0v.92Z"/><path class="cls-1" d="m210.1,225.62c0,15.91-43.63,28.84-97.93,29.2v-.92c5.48-.04,10.84-.21,16.05-.5,2.84-.16,5.65-.35,8.4-.58,11.23-.93,21.63-2.45,30.79-4.42,2.31-.5,4.54-1.03,6.69-1.58,8.54-2.2,15.75-4.83,21.21-7.78,1.35-.72,2.59-1.47,3.72-2.24,4.4-2.97,7.09-6.2,7.73-9.59.11-.53.16-1.06.16-1.6,0-2.24-.9-4.43-2.6-6.52-1.08-1.34-2.5-2.64-4.21-3.89-1.03-.76-2.17-1.51-3.43-2.23-5.02-2.92-11.72-5.55-19.75-7.79-2.01-.56-4.1-1.09-6.27-1.6-10.66-2.51-23.19-4.36-36.87-5.38-2.67-.2-5.37-.36-8.12-.49-5.16-.25-10.47-.37-15.88-.37v-.93c51.06,0,93.21,11.11,99.48,25.49h0c.53,1.22.81,2.46.81,3.72Z"/><path class="cls-1" d="m206.93,225.62c0,.54-.05,1.08-.16,1.6-.65,3.39-3.34,6.62-7.73,9.59-1.13.77-2.37,1.51-3.72,2.24-5.46,2.95-12.67,5.58-21.21,7.78-2.15.55-4.38,1.08-6.69,1.58-9.16,1.97-19.56,3.48-30.79,4.42-2.75.23-5.55.42-8.4.58-5.21.29-10.58.46-16.06.5-.78,0-1.56,0-2.35,0-5.45,0-10.8-.14-16.01-.39-2.87-.14-5.68-.31-8.46-.52h0c-14.21-1.08-27.16-3.07-38.05-5.74-2.2-.53-4.32-1.1-6.34-1.7-8.06-2.36-14.68-5.13-19.48-8.19-1.19-.76-2.26-1.53-3.21-2.32-3.59-2.95-5.54-6.13-5.54-9.44,0-.07,0-.15,0-.23.02-.86.18-1.71.46-2.55.42-1.27,1.14-2.52,2.12-3.74,1.61-1.99,3.95-3.9,6.93-5.7,1.21-.74,2.54-1.46,3.96-2.16,5.71-2.82,13.07-5.32,21.66-7.4,2.14-.52,4.36-1.01,6.64-1.47,4.52-.92,9.3-1.72,14.33-2.4,5.03-.68,10.29-1.25,15.73-1.67,2.66-.21,5.37-.38,8.11-.53,5.57-.29,11.31-.44,17.16-.44,5.41,0,10.71.13,15.88.37,2.75.13,5.45.29,8.12.49,13.69,1.01,26.21,2.87,36.87,5.38,2.16.51,4.25,1.04,6.27,1.6,8.02,2.24,14.73,4.87,19.75,7.79,1.26.72,2.4,1.47,3.43,2.23,1.71,1.25,3.13,2.56,4.21,3.89,1.7,2.09,2.6,4.28,2.6,6.52Z"/><path class="cls-1" d="m206.93,225.62c0,.54-.05,1.08-.16,1.6-.65,3.39-3.34,6.62-7.73,9.59-1.13.77-2.37,1.51-3.72,2.24-5.46,2.95-12.67,5.58-21.21,7.78-2.15.55-4.38,1.08-6.69,1.58-9.16,1.97-19.56,3.48-30.79,4.42-2.75.23-5.55.42-8.4.58-5.21.29-10.58.46-16.06.5-.78,0-1.56,0-2.35,0-5.45,0-10.8-.14-16.01-.39-2.87-.14-5.68-.31-8.46-.52h0c-14.21-1.08-27.16-3.07-38.05-5.74-2.2-.53-4.32-1.1-6.34-1.7-8.06-2.36-14.68-5.13-19.48-8.19-1.19-.76-2.26-1.53-3.21-2.32-3.59-2.95-5.54-6.13-5.54-9.44,0-.07,0-.15,0-.23.02-.86.18-1.71.46-2.55.42-1.27,1.14-2.52,2.12-3.74,1.61-1.99,3.95-3.9,6.93-5.7,1.21-.74,2.54-1.46,3.96-2.16,5.71-2.82,13.07-5.32,21.66-7.4,2.14-.52,4.36-1.01,6.64-1.47,4.52-.92,9.3-1.72,14.33-2.4,5.03-.68,10.29-1.25,15.73-1.67,2.66-.21,5.37-.38,8.11-.53,5.57-.29,11.31-.44,17.16-.44,5.41,0,10.71.13,15.88.37,2.75.13,5.45.29,8.12.49,13.69,1.01,26.21,2.87,36.87,5.38,2.16.51,4.25,1.04,6.27,1.6,8.02,2.24,14.73,4.87,19.75,7.79,1.26.72,2.4,1.47,3.43,2.23,1.71,1.25,3.13,2.56,4.21,3.89,1.7,2.09,2.6,4.28,2.6,6.52Z"/><line class="cls-1" x1="107.38" y1="229.77" x2="93.81" y2="253.53"/><line class="cls-1" x1="125.69" y1="197.72" x2="112.12" y2="221.47"/><polyline class="cls-1" points="136.67 252.87 136.63 252.82 114.45 229.61"/><line class="cls-1" x1="106.72" y1="221.51" x2="84.59" y2="198.35"/><line class="cls-1" x1="173.69" y1="246.69" x2="120.31" y2="228.52"/><line class="cls-1" x1="101.62" y1="222.16" x2="48.27" y2="203.99"/><line class="cls-1" x1="199.04" y1="236.82" x2="123.66" y2="226.84"/><line class="cls-1" x1="97.59" y1="223.38" x2="22.23" y2="213.4"/><line class="cls-1" x1="204.5" y1="224.85" x2="124.15" y2="225.08"/><polyline class="cls-1" points="95.46 225.16 12.72 225.39 12.59 225.39"/><line class="cls-1" x1="196.46" y1="213.01" x2="122.03" y2="223.37"/><line class="cls-1" x1="96.13" y1="226.98" x2="21.46" y2="237.38"/><line class="cls-1" x1="170.68" y1="203.58" x2="118.14" y2="222.18"/><line class="cls-1" x1="99.82" y1="228.67" x2="47.29" y2="247.27"/><polyline class="cls-1" points="133.95 198.05 133.81 198.21 113.19 221.53"/><line class="cls-1" x1="105.97" y1="229.68" x2="85.49" y2="252.84"/><polyline class="cls-1" points="92.62 197.72 92.66 197.78 107.8 221.46"/><line class="cls-1" x1="128.23" y1="253.41" x2="113.09" y2="229.73"/><polyline class="cls-1" points="54.49 202.38 54.49 202.38 102.58 221.98"/><line class="cls-1" x1="167.41" y1="248.4" x2="119.32" y2="228.8"/><line class="cls-1" x1="98.27" y1="223.09" x2="26.19" y2="211.24"/><line class="cls-1" x1="195.32" y1="239.05" x2="123.23" y2="227.2"/><line class="cls-1" x1="95.71" y1="224.71" x2="13.18" y2="222.84"/><polyline class="cls-1" points="124.24 225.36 206.77 227.23 206.78 227.23"/><line class="cls-1" x1="95.76" y1="226.6" x2="18.26" y2="235.07"/><line class="cls-1" x1="200.12" y1="215.2" x2="122.61" y2="223.67"/><polyline class="cls-1" points="40.65 245.66 40.95 245.57 98.86 228.37"/><line class="cls-1" x1="176.67" y1="205.26" x2="119.03" y2="222.38"/><path class="cls-1" d="m119.47,225.63c0,1.55-4.32,2.81-9.64,2.81s-9.64-1.26-9.64-2.81,4.32-2.81,9.64-2.81,9.64,1.26,9.64,2.81Z"/><path class="cls-1" d="m113.81,225.63c0,.64-1.79,1.16-3.99,1.16s-3.99-.52-3.99-1.16,1.79-1.16,3.99-1.16,3.99.52,3.99,1.16Z"/></g></svg>